<?xml version="1.0" encoding="utf-8"?>
<svg version="1.1" xmlns:xlink="http://www.w3.org/1999/xlink" width="15px" height="16px" xmlns="http://www.w3.org/2000/svg">
  <g transform="matrix(1 0 0 1 -16 -236 )">
    <path d="M 12.8522245762712 12.4046391752577  C 11.885593220339 11.985824742268  10.0119173728814 11.5219072164948  10.0119173728814 11.5219072164948  C 10.0119173728814 11.5219072164948  10.0317796610169 10.9613402061856  10.0119173728814 10.3943298969072  C 13.1567796610169 10.4394329896907  13.3554025423729 10.0786082474227  13.5540254237288 9.9819587628866  C 12.6403601694915 8.55798969072165  12.5145656779661 5.74226804123711  12.4880826271186 5.45231958762887  C 12.2431144067797 3.33247422680412  11.6472457627119 2.43685567010309  11.4486228813559 2.12757731958763  C 8.47590042372881 -1.51288659793814  5.68193855932203 0.729381443298969  5.68193855932203 0.729381443298969  C 3.74205508474576 0.658505154639175  3.2322563559322 2.4110824742268  3.1594279661017 2.59149484536082  C 2.82838983050847 3.53221649484536  2.60328389830508 5.28479381443299  2.54369703389831 5.50386597938144  C 2.10010593220339 8.89948453608248  1.15333686440678 9.96907216494845  1.07388771186441 10.110824742268  C 2.24576271186441 10.5296391752577  4.90068855932203 10.3814432989691  4.90068855932203 10.3814432989691  C 4.90068855932203 10.3814432989691  4.92055084745763 11.1030927835052  4.92055084745763 11.5412371134021  C 3.49046610169491 11.7409793814433  1.43140889830508 12.7139175257732  1.22616525423729 12.8427835051546  C -0.256885593220339 13.7770618556701  0.0211864406779661 16  0.0211864406779661 16  C 0.0211864406779661 16  14.3418961864407 16  14.9179025423729 16  C 15.3217690677966 13.2680412371134  13.0243644067797 12.4755154639175  12.8522245762712 12.4046391752577  Z M 8.21106991525424 10.6842783505155  C 8.13824152542373 10.7036082474227  7.47616525423729 11.0257731958763  6.72801906779661 10.6842783505155  C 6.6551906779661 10.6649484536082  5.24496822033898 10.1172680412371  4.4968220338983 7.94587628865979  C 4.43061440677966 7.90721649484536  4.05323093220339 7.82989690721649  3.75529661016949 7.51417525773196  C 3.7155720338983 7.46907216494845  2.62976694915254 6.45747422680412  4.03998940677966 5.90335051546392  C 4.13268008474576 5.85824742268041  5.19200211864407 5.40721649484536  5.69518008474576 3.59664948453608  C 5.7613877118644 3.52577319587629  5.75476694915254 3.49355670103093  5.88718220338983 3.44845360824742  C 5.88718220338983 3.44845360824742  6.49629237288136 5.14948453608247  8.19120762711864 5.32989690721649  C 8.2176906779661 5.14948453608247  7.97934322033898 5.34278350515464  8.11837923728814 4.17010309278351  C 8.19120762711864 4.21520618556701  9.05852754237288 5.63917525773196  10.1244703389831 5.76159793814433  C 10.2966101694915 5.80025773195876  10.7666843220339 6.03865979381443  11.1904131355932 6.05154639175258  C 11.3029661016949 6.06443298969072  12.0180084745763 6.41237113402062  11.3162076271186 7.35309278350516  C 11.2764830508475 7.42396907216495  11.0447563559322 7.74613402061856  10.4224046610169 7.93943298969072  C 10.3826800847458 8.00386597938144  9.76032838983051 10.0657216494845  8.21106991525424 10.6842783505155  Z " fill-rule="nonzero" fill="#d7d7d7" stroke="none" transform="matrix(1 0 0 1 16 236 )" />
  </g>
</svg>