<?xml version="1.0" encoding="utf-8"?>
<svg version="1.1" xmlns:xlink="http://www.w3.org/1999/xlink" width="16px" height="16px" xmlns="http://www.w3.org/2000/svg">
  <g transform="matrix(1 0 0 1 -16 -108 )">
    <path d="M 3.2 6.186666671875  C 3.2 7.09333334375  3.626666671875 7.786666671875  4.106666671875 7.786666671875  L 4.213333328125 7.786666671875  C 4.8 9.813333328125  6.24 11.2  7.893333328125 11.2  C 9.6 11.2  11.2 9.76  11.84 7.786666671875  C 12.373333328125 7.786666671875  12.8 7.09333334375  12.8 6.186666671875  C 12.8 5.92  12.746666671875 5.65333334375  12.693333328125 5.44  C 12.74666665625 5.12  12.8 4.8  12.8 4.533333328125  C 12.8 2.08  10.56 0  7.946666671875 0  C 5.333333328125 0  3.2 2.026666671875  3.2 4.533333328125  C 3.2 4.8  3.253333328125 5.12  3.306666671875 5.44  C 3.25333334375 5.706666671875  3.2 5.92  3.2 6.186666671875  Z M 12.266666671875 6.186666671875  C 12.266666671875 6.88  12 7.25333334375  11.84 7.253333328125  L 11.786666671875 7.253333328125  C 11.73333334375 7.2  11.626666671875 7.2  11.52 7.253333328125  C 11.466666671875 7.30666665625  11.36 7.36  11.36 7.413333328125  C 10.88 9.22666665625  9.386666671875 10.66666665625  7.893333328125 10.666666671875  C 6.453333328125 10.666666671875  5.173333328125 9.386666671875  4.693333328125 7.466666671875  C 4.693333328125 7.36  4.64 7.306666671875  4.533333328125 7.306666671875  L 4.106666671875 7.306666671875  C 3.946666671875 7.306666671875  3.68 6.88  3.68 6.24  L 3.68 5.92  L 4.48 5.92  C 4.693333328125 5.866666671875  4.8 5.76  4.8 5.6  C 4.8 4.746666671875  4.96 3.893333328125  5.12 3.733333328125  L 5.813333328125 3.733333328125  C 6.66666665625 3.733333328125  7.093333328125 3.46666665625  7.306666671875 3.093333328125  C 7.89333334375 3.893333328125  9.226666671875 4.693333328125  10.666666671875 4.8  C 10.77333334375 5.386666671875  11.25333334375 5.76  11.253333328125 5.813333328125  C 11.30666665625 5.86666665625  11.36 5.86666665625  11.413333328125 5.866666671875  L 12.266666671875 5.866666671875  L 12.266666671875 6.186666671875  Z M 16 15.253333328125  C 16 13.493333328125  14.773333328125 11.14666665625  12.96 10.56  L 11.253333328125 10.24  C 11.14666665625 10.24  11.093333328125 10.24  10.986666671875 10.346666671875  C 10.133333328125 11.2  9.066666671875 11.733333328125  7.946666671875 11.733333328125  C 6.826666671875 11.733333328125  5.706666671875 11.2  4.853333328125 10.293333328125  C 4.8 10.24  4.693333328125 10.18666665625  4.586666671875 10.186666671875  L 2.826666671875 10.506666671875  C 1.12 11.146666671875  0 13.386666671875  0 15.093333328125  L 0 15.733333328125  C 0 15.893333328125  0.106666671875 16  0.266666671875 16  L 15.733333328125 16  C 15.893333328125 16  16 15.893333328125  16 15.733333328125  L 16 15.253333328125  Z M 6.933333328125 6.133333328125  C 6.9333333125 5.973333328125  6.82666665625 5.86666665625  6.666666671875 5.866666671875  L 6.133333328125 5.866666671875  C 5.973333328125 5.866666671875  5.86666665625 5.97333334375  5.866666671875 6.133333328125  C 5.8666666875 6.2933333125  5.97333334375 6.4  6.133333328125 6.4  L 6.666666671875 6.4  C 6.826666671875 6.4  6.93333334375 6.293333328125  6.933333328125 6.133333328125  Z M 10.133333328125 6.133333328125  C 10.1333333125 5.973333328125  10.02666665625 5.86666665625  9.866666671875 5.866666671875  L 9.333333328125 5.866666671875  C 9.173333328125 5.866666671875  9.06666665625 5.97333334375  9.066666671875 6.133333328125  C 9.0666666875 6.2933333125  9.17333334375 6.4  9.333333328125 6.4  L 9.866666671875 6.4  C 10.026666671875 6.4  10.13333334375 6.293333328125  10.133333328125 6.133333328125  Z " fill-rule="nonzero" fill="#d7d7d7" stroke="none" transform="matrix(1 0 0 1 16 108 )" />
  </g>
</svg>